<svg width="25" height="19" viewBox="0 0 25 19" fill="none" xmlns="http://www.w3.org/2000/svg">
<path d="M4.54545 0H25V14.25H4.54545V0ZM14.7727 3.5625C15.6769 3.5625 16.544 3.93783 17.1833 4.60593C17.8226 5.27403 18.1818 6.18017 18.1818 7.125C18.1818 8.06983 17.8226 8.97597 17.1833 9.64407C16.544 10.3122 15.6769 10.6875 14.7727 10.6875C13.8686 10.6875 13.0015 10.3122 12.3621 9.64407C11.7228 8.97597 11.3636 8.06983 11.3636 7.125C11.3636 6.18017 11.7228 5.27403 12.3621 4.60593C13.0015 3.93783 13.8686 3.5625 14.7727 3.5625V3.5625ZM9.09091 2.375C9.09091 3.00489 8.85146 3.60898 8.42524 4.05438C7.99902 4.49978 7.42095 4.75 6.81818 4.75V9.5C7.42095 9.5 7.99902 9.75022 8.42524 10.1956C8.85146 10.641 9.09091 11.2451 9.09091 11.875H20.4545C20.4545 11.2451 20.694 10.641 21.1202 10.1956C21.5464 9.75022 22.1245 9.5 22.7273 9.5V4.75C22.1245 4.75 21.5464 4.49978 21.1202 4.05438C20.694 3.60898 20.4545 3.00489 20.4545 2.375H9.09091ZM0 4.75H2.27273V16.625H20.4545V19H0V4.75Z" fill="#BDBDBD"/>
</svg>
