<svg width="74" height="35" viewBox="0 0 74 35" fill="none" xmlns="http://www.w3.org/2000/svg">
<path d="M33.328 33.6437C33.3394 33.2454 33.3451 32.8451 33.3932 32.4504C33.4914 31.6396 33.4341 30.8779 33.0463 30.1209C32.7603 29.563 32.5699 28.9354 32.7882 28.2756C32.9506 27.7847 33.1134 27.2917 33.2355 26.79C33.3332 26.3888 33.2221 26.2357 32.8021 26.2045C31.8842 26.1364 31.021 25.8917 30.1875 25.5166C29.871 25.3737 29.5968 25.3532 29.3844 25.7356C28.741 26.8925 27.5711 27.3773 26.4345 27.8543C25.6051 28.2023 24.7001 28.3718 23.8617 28.7025C23.2421 28.9467 22.5326 29.1745 22.4778 30.0376C22.4711 30.1399 22.3625 30.247 22.2797 30.3314C21.7274 30.8981 21.6679 31.8707 22.1576 32.4906C22.2145 32.5622 22.2839 32.6483 22.3645 32.6733C22.7891 32.8039 23.2198 32.9123 23.6465 33.0367C23.8777 33.1042 24.1088 33.1785 24.3312 33.2701C24.5261 33.3505 24.7175 33.4452 24.8949 33.5578C25.2258 33.7682 25.6437 33.9084 25.7529 34.407C25.7772 34.5175 25.6857 34.6096 25.5714 34.6103C25.3309 34.6113 25.1017 34.6123 24.8727 34.6086C24.6192 34.6046 24.327 34.5047 24.1207 34.5973C23.5771 34.8405 23.0336 34.7351 22.4839 34.7258C21.9217 34.716 21.3591 34.7185 20.7974 34.7386C20.4566 34.7509 20.1184 34.8124 19.7776 34.8395C19.5381 34.8584 19.2962 34.8476 19.0561 34.8651C18.5561 34.9015 18.4511 34.7647 18.3383 34.2892C18.2468 33.9022 18.0641 33.5131 17.8304 33.1892C17.5967 32.8646 17.4694 32.5651 17.6138 32.1889C17.7001 31.9642 17.8159 31.7507 17.908 31.5279C18.1769 30.8764 18.5829 30.2411 18.6738 29.5653C18.8259 28.4356 19.3312 27.6679 20.3375 27.1417C20.7559 26.9231 21.2218 26.6246 21.4421 26.2376C21.9044 25.4247 22.2452 24.5449 22.6233 23.688C22.6688 23.5846 22.6233 23.4603 22.5189 23.4141C22.1605 23.2554 21.811 23.1254 21.5223 22.914C21.1614 22.6499 20.7941 22.6903 20.4115 22.7124C20.1059 22.7298 19.8018 22.7749 19.4977 22.8111C19.3121 22.8332 19.1218 22.8409 18.9433 22.89C17.3215 23.3364 16.056 24.4507 14.5826 25.1761C13.8963 25.5139 13.223 25.8856 12.514 26.1671C11.5045 26.5678 10.4252 26.7378 9.34793 26.7501C8.34569 26.7613 7.32063 26.9662 6.33551 26.5781C5.72012 26.3353 5.11449 26.0385 4.47527 25.8921C3.22738 25.607 1.95719 25.4182 0.700048 25.1703C0.493186 25.1294 0.296085 25.0423 0.0975886 24.9599C-0.00799699 24.9164 -0.0353757 24.813 0.0525912 24.7408C0.144614 24.6651 0.231567 24.6222 0.32359 24.5971C1.73385 24.2101 3.17364 24.0247 4.63359 23.9348C5.9953 23.8508 7.36728 23.79 8.70985 23.5693C10.1423 23.3338 11.3086 22.5701 12.1845 21.3881C13.0854 20.1734 14.0008 18.968 14.9468 17.7877C15.5223 17.0689 16.174 16.4101 16.7806 15.7149C17.4768 14.9175 18.1454 14.0958 18.8555 13.3106C19.2759 12.8452 19.745 12.4219 20.2068 11.9955C20.8542 11.397 21.463 10.7382 22.1829 10.2398C23.2301 9.51448 24.3296 8.84589 25.4673 8.27003C26.6055 7.69366 27.793 7.20223 29.0879 7.02407C29.9515 6.90538 30.8007 6.68419 31.6622 6.54506C32.9821 6.33202 34.3019 6.08838 35.6319 5.98048C36.297 5.92678 36.9925 6.10895 37.6607 6.24922C38.3935 6.40278 39.1207 6.60039 39.8306 6.83738C40.3007 6.99446 40.7353 7.25605 41.1871 7.46745C42.0223 7.85751 42.934 8.08071 43.7072 8.60639C43.8065 8.67401 43.9193 8.738 44.0352 8.76409C44.7556 8.92744 45.508 9.00159 46.1938 9.25389C47.1712 9.61322 48.1439 9.58662 49.1431 9.49603C49.5418 9.45965 49.774 9.34197 49.8919 8.91201C50.0363 8.3847 50.0026 7.96352 49.6023 7.56581C49.4901 7.45415 49.3815 7.15166 49.4374 7.09383C49.7729 6.7458 49.5548 6.38748 49.533 6.02853C49.5227 5.85765 49.536 5.56884 49.6276 5.52844C50.017 5.35493 49.9784 5.08569 49.9022 4.77078C49.8677 4.62851 49.8313 4.47281 49.8547 4.33267C49.9028 4.04449 49.8511 3.65593 50.2167 3.56334C50.4991 3.49221 50.4701 3.3754 50.4442 3.16965C50.3775 2.63782 50.7199 2.21752 51.2302 2.16332C51.2577 2.16018 51.2846 2.15253 51.3073 2.14337C51.3481 2.12744 51.3709 2.01791 51.3766 1.90487C51.407 1.31106 51.435 0.763298 51.4624 0.221305C51.4681 0.108264 51.5084 0.00939903 51.5519 0.000742196C51.5954 -0.00791464 51.6837 0.0600861 51.749 0.152802C51.8202 0.254175 51.8922 0.355548 51.963 0.457297C52.0758 0.619142 52.1601 0.88374 52.3058 0.923135C52.6022 1.00243 52.9363 0.99377 53.2451 0.951866C53.3676 0.934929 53.4766 0.741968 53.5702 0.613496C54.0279 -0.0155674 54.7499 -0.158467 55.3476 0.232094C55.4428 0.294574 55.4237 0.381518 55.313 0.410751C55.1879 0.443496 55.0612 0.478375 54.9474 0.536589C54.5978 0.716877 54.6211 0.809969 54.9112 1.06842C55.1507 1.28195 55.3881 1.40365 55.7149 1.45747C56.2092 1.5394 56.3474 1.43088 56.2356 0.925143C56.2196 0.852877 56.2149 0.777725 56.2129 0.702448C56.2097 0.589282 56.2345 0.492552 56.2683 0.4854C56.3018 0.478249 56.3846 0.54625 56.4585 0.632316C56.6938 0.9067 56.9384 1.15286 56.927 1.64328C56.9151 2.14237 56.8805 2.70029 57.2259 3.20352C57.7963 4.03432 57.6184 5.14152 56.9027 5.85C56.6327 6.11724 56.6973 6.38949 57.0387 6.55384C57.1683 6.61632 57.2678 6.75395 57.3619 6.87226C57.425 6.95155 57.4431 7.13021 57.5019 7.14C58.1862 7.25216 58.0713 8.04394 58.5797 8.35308C58.8806 8.53638 59.0002 9.03082 59.1677 9.40043C59.2216 9.51924 59.2278 9.74344 59.1528 9.81559C59.084 9.88258 58.975 9.9093 58.8539 9.9354C58.7422 9.95949 58.6543 10.1053 58.7609 10.1468C58.8586 10.1852 59.0085 10.1376 59.1664 10.0895C59.3064 10.0464 59.4963 9.98044 59.6002 10.0378C59.8355 10.1673 60.0094 10.1785 60.226 10.0065C60.3848 9.88007 61.4373 10.2962 61.5479 10.4774C61.6085 10.5768 61.7301 10.6428 61.8298 10.7154C62.0713 10.8905 62.3247 11.0506 62.5538 11.2406C62.6056 11.2836 62.621 11.4628 62.5767 11.5114C62.2783 11.84 62.2519 12.1933 62.4133 12.5859C62.7215 13.3348 62.9603 13.4679 63.6683 13.0773C64.0778 12.8511 64.4631 12.5813 64.8743 12.3572C66.189 11.6405 67.5227 10.9577 68.8238 10.2179C69.4998 9.83403 70.1312 9.37082 70.7652 8.91879C71.1277 8.66034 71.4561 8.35371 71.7978 8.06653C72.1263 7.79064 72.4501 7.51011 72.7789 7.23522C73.1125 6.9567 73.4485 6.68131 73.7843 6.40492C73.8722 6.33278 73.9637 6.28874 73.9885 6.30718C74.0132 6.32563 73.9964 6.42436 73.9539 6.52938C73.8908 6.68557 73.8288 6.84215 73.7388 6.98141C72.7842 8.45207 71.6393 9.77217 70.399 11.009C69.9159 11.4906 69.3554 11.8961 68.8304 12.3364C68.1939 12.8697 67.5711 13.42 66.9164 13.9303C66.5714 14.1991 66.1903 14.4228 65.8309 14.6485C65.7347 14.7088 65.7135 14.8328 65.7803 14.9244C65.9179 15.1123 66.025 15.2709 66.1645 15.3952C66.3512 15.5616 66.6216 15.6415 66.7934 15.818C66.9569 15.9859 67.1362 16.2275 67.1431 16.4416C67.1673 17.2421 67.2309 18.0613 66.7846 18.7972C66.7588 18.8398 66.7397 18.9176 66.7613 18.9523C66.9476 19.2533 66.6781 19.4868 66.6486 19.7545C66.6387 19.8446 66.5833 19.9337 66.5865 20.0212C66.6093 20.5807 66.3145 20.9539 65.8806 21.2569C65.7488 21.349 65.6113 21.4469 65.513 21.5707C64.9049 22.3365 64.0608 22.4128 63.1756 22.3641C63.1285 22.3615 63.083 22.3415 63.0369 22.3176C62.965 22.2797 62.9392 22.1994 62.9785 22.1394C63.0027 22.1025 63.0282 22.0668 63.0587 22.036C63.4781 21.6076 63.386 21.0301 62.8327 20.85C62.4464 20.7241 62.0988 20.4829 61.7616 20.2782C61.6644 20.2192 61.6365 20.2495 61.6996 20.3437C61.7994 20.4921 61.8822 20.659 61.7616 20.834C61.6975 20.9277 61.6448 21.0648 61.6856 21.1703C61.8449 21.5793 62.0684 21.9357 62.5328 22.1547C62.6357 22.2034 62.6361 22.2627 62.5271 22.295C61.8786 22.4879 61.3138 22.5167 60.7345 22.4761C59.6791 22.4019 58.7373 21.9857 58.0537 21.2465C57.2785 20.408 56.5368 19.6076 55.4368 19.1647C54.8328 18.9216 54.2473 18.6932 53.6055 18.8089C52.533 19.0019 51.4521 19.1642 50.645 20.0522C50.4386 20.2796 50.3238 20.4326 50.36 20.7117C50.4422 21.3464 50.2349 21.8885 49.7554 22.2989C49.0262 22.9234 48.3106 23.5766 47.513 24.1058C46.5506 24.7452 45.5035 25.259 44.5073 25.8513C44.3527 25.9434 44.2105 26.1528 44.1759 26.3298C44.0172 27.1442 43.9101 27.9688 43.7626 28.7858C43.6354 29.4917 43.4606 30.1899 43.3452 30.8974C43.2987 31.1829 43.4048 31.4932 43.354 31.7773C43.2796 32.1955 43.3793 32.5435 43.702 32.7817C44.0449 33.0351 44.4291 33.2392 44.8139 33.4287C45.1904 33.6135 45.4945 33.8478 45.6785 34.2088C45.7297 34.3097 45.6676 34.4079 45.5539 34.4197C45.224 34.4544 44.9153 34.4812 44.6111 34.5354C44.0888 34.6291 43.5758 34.7852 43.0508 34.8528C42.6117 34.909 42.1609 34.8619 41.7166 34.886C41.4553 34.9003 41.1974 34.9972 40.9373 34.9986C40.1223 35.0048 39.3073 34.9899 38.4922 34.9668C38.3252 34.9623 38.1591 34.8885 37.9941 34.843C37.918 34.822 37.8332 34.7534 37.7728 34.772C37.3234 34.9102 37.084 34.729 36.9453 34.3379C36.9076 34.2314 36.7954 34.1413 36.6812 34.1408C35.7312 34.1398 34.7857 34.1311 33.8409 34.1464C33.4656 34.1515 33.3181 33.9825 33.328 33.6437ZM36.3932 30.0083C36.3244 30.6688 36.4945 31.2783 37.0143 31.7421C37.0536 31.7773 37.109 31.7948 37.1683 31.8075C37.2594 31.828 37.3551 31.7722 37.382 31.6836C37.3991 31.6269 37.411 31.5711 37.4005 31.5193C37.1673 30.3562 36.9223 29.1955 36.6786 28.0345C36.6756 28.0185 36.6605 28.0048 36.6088 27.9464C36.568 27.8998 36.5089 27.948 36.4676 28.0535C36.4184 28.1767 36.3776 28.2752 36.4055 28.3474C36.6229 28.9103 36.4516 29.4524 36.3932 30.0083Z" fill="black"/>
</svg>
