<svg width="53" height="30" viewBox="0 0 53 30" fill="none" xmlns="http://www.w3.org/2000/svg">
<path d="M1.44689 2.89936C2.24599 2.89936 2.89378 2.25031 2.89378 1.44968C2.89378 0.649042 2.24599 0 1.44689 0C0.647797 0 0 0.649042 0 1.44968C0 2.25031 0.647797 2.89936 1.44689 2.89936Z" transform="translate(37.6426 18.1543)" fill="black"/>
<path d="M50.1004 23.5753L49.1349 22.313L47.3918 19.416L48.4625 13.8094L42.9263 10.954L41.361 4.93411L35.1515 4.74947L31.1386 0.000232494L25.4703 2.541L19.8025 7.80634e-08L15.7923 4.74924L9.58769 4.93365L8.03264 10.9537L2.51709 13.8087L3.7233 19.9109L0 24.824L3.65831 29.6503H47.8284H47.8305H48.3349C48.7712 29.8721 49.2632 30 49.7859 30C51.561 30 53 28.5582 53 26.7797C53.0002 25.1075 51.7279 23.7336 50.1004 23.5753ZM31.6989 26.0916C30.7187 20.4027 34.7384 15.8351 39.7359 13.445L46.9042 25.3608C46.7886 25.5959 46.6988 25.8456 46.6431 26.1088L31.6989 26.0916Z" fill="black"/>
</svg>
