<svg width="25" height="30" viewBox="0 0 25 30" fill="none" xmlns="http://www.w3.org/2000/svg">
<path d="M24.4512 12.1372C24.1309 11.3573 23.8492 10.5635 23.4993 9.79308C23.1963 9.12575 22.6877 8.72826 22.1142 8.38868C21.7865 8.19485 21.4196 8.06932 21.0702 7.93242C20.9635 7.89063 20.8952 7.76211 20.9175 7.64847C20.9747 7.35804 21.0383 7.05109 21.0793 6.74115C21.1041 6.55257 21.0577 6.3554 21.0555 6.16198C21.0524 5.89945 21.0548 5.63681 21.0654 5.37453C21.0838 4.92012 20.968 4.4915 20.8603 4.05624C20.7913 3.77713 20.8417 3.46549 20.7609 3.19215C20.677 2.90799 20.7772 2.56362 20.509 2.33706C20.503 2.33202 20.4997 2.31941 20.5005 2.31081C20.5434 1.86943 20.2221 1.56073 20.0754 1.19325C19.9265 0.820312 19.6818 0.464619 19.2692 0.286541C19.123 0.223493 18.9892 0.130954 18.8386 0.030541C18.7431 -0.0332789 18.6351 0.00655706 18.5977 0.116183C18.4684 0.495191 18.3379 0.838531 18.2615 1.19366C18.1859 1.54606 18.002 1.86521 18.0585 2.26923C18.0991 2.55837 17.9222 2.87505 17.8615 3.1835C17.8294 3.34665 17.8126 3.51274 17.7954 3.68011C17.7836 3.7954 17.7113 3.8183 17.64 3.72736C17.4691 3.50898 17.3188 3.28952 17.113 3.16101C16.7588 2.9399 16.4956 2.61087 16.1486 2.40212C15.6067 2.07623 15.056 1.73731 14.4661 1.52943C13.8813 1.3232 13.2463 1.24827 12.6267 1.16674C12.4636 1.14533 12.2894 1.21023 12.0932 1.2722C11.9841 1.30663 11.9371 1.41183 11.9899 1.51471C12.1723 1.87025 12.336 2.20222 12.5208 2.52157C12.8268 3.05056 13.1446 3.57321 13.4759 4.08619C13.6638 4.37703 13.8919 4.64096 14.097 4.92069C14.3078 5.2086 14.5025 5.50932 14.7236 5.78879C14.8767 5.98221 15.066 6.14577 15.2322 6.32905C15.4152 6.53111 15.6027 6.7306 15.7666 6.9481C16.2154 7.54404 16.3898 8.24416 16.4833 8.97176C16.4868 8.99944 16.4909 9.02924 16.5034 9.05364C16.7387 9.51144 16.4914 9.80414 16.172 10.0796C16.127 10.1185 16.1233 10.2054 16.0982 10.2693C16.0554 10.3781 16.0316 10.5026 15.9632 10.5914C15.7512 10.8659 15.7117 11.183 15.6854 11.5133C15.669 11.718 15.6091 11.9185 15.5804 12.1229C15.5758 12.1556 15.5783 12.1895 15.5831 12.2207C15.5912 12.2743 15.556 12.3997 15.5085 12.5052C15.3322 12.8981 15.209 13.33 14.8452 13.5949C14.7522 13.6625 14.7259 13.6938 14.799 13.685C14.8721 13.6762 14.9331 13.6757 14.9354 13.6839C14.9377 13.6921 14.8523 13.7315 14.7452 13.7721C14.7291 13.7782 14.7127 13.7842 14.6963 13.7905C14.589 13.8311 14.5517 13.8774 14.6129 13.8943C14.6739 13.9111 14.6363 13.956 14.5283 13.9949C14.4324 14.0293 14.34 14.0625 14.2456 14.0965C14.1376 14.1351 14.0915 14.1875 14.1422 14.2131C14.193 14.2387 14.1546 14.2797 14.0569 14.3046C13.9591 14.3296 13.8907 14.3754 13.9044 14.4065C13.9181 14.4376 13.8381 14.4808 13.7262 14.5048C13.5249 14.5478 13.3232 14.5923 13.1189 14.6112C13.0528 14.6173 12.9818 14.6068 12.9117 14.5866C12.8018 14.5549 12.6271 14.503 12.5128 14.5056C11.8441 14.5201 10.7017 14.7315 10.2393 14.822C10.1271 14.8441 9.94395 14.8724 9.83002 14.8844C9.67506 14.9005 9.50975 14.9178 9.33926 14.9356C9.22554 14.9476 9.14786 14.9711 9.16608 14.9883C9.18411 15.0055 9.11079 15.0492 9.00219 15.0859C8.50296 15.2551 7.99444 15.4273 7.48383 15.6004C7.37528 15.6371 7.31644 15.6833 7.35269 15.7035C7.38894 15.7236 7.33238 15.7757 7.2247 15.8152C6.93657 15.9206 6.64819 16.0069 6.42241 16.1783C6.178 16.3639 5.90638 16.5117 5.66526 16.7076C5.39369 16.9281 5.01565 17.0136 4.68381 17.1578C4.65233 17.1715 4.62085 17.1851 4.57942 17.2034C4.52159 17.2286 4.52078 17.27 4.57775 17.2958C4.63471 17.3217 4.60633 17.3987 4.51454 17.468C4.31506 17.6184 4.11786 17.7673 3.91858 17.9176C3.82679 17.9869 3.77978 18.0589 3.81354 18.0786C3.8473 18.0984 3.79343 18.1595 3.69316 18.2153C3.62564 18.2529 3.55913 18.2899 3.49307 18.3269C3.3928 18.3827 3.31619 18.4373 3.32172 18.4488C3.32751 18.4604 3.39402 18.4585 3.47068 18.4444C3.54709 18.4304 3.54217 18.4841 3.45951 18.5641C3.09493 18.9169 2.74237 19.2585 2.38855 19.5989C2.35209 19.634 2.31335 19.6665 2.26487 19.7071C2.19506 19.7653 2.21369 19.7919 2.30589 19.7661C2.39809 19.7405 2.42124 19.798 2.3589 19.8952C2.18262 20.1691 2.01152 20.4397 1.82819 20.7016C1.71055 20.8694 1.56057 21.014 1.42715 21.1707C1.42298 21.1758 1.42385 21.1852 1.42567 21.1956C1.42796 21.2097 1.46609 21.2141 1.51102 21.2057C1.55595 21.1973 1.53772 21.2664 1.4704 21.3603C1.35876 21.5154 1.2498 21.6673 1.1313 21.8321C1.06398 21.9257 1.08322 21.9617 1.17415 21.9122C1.26513 21.8626 1.30199 21.909 1.2533 22.014C1.07373 22.4011 0.886433 22.7372 0.857849 23.1427C0.843785 23.3424 0.740212 23.5354 0.63933 23.7513C0.590437 23.856 0.596022 23.914 0.645727 23.8779C0.695432 23.8417 0.72031 23.9053 0.700814 24.0196C0.608817 24.5578 0.519155 25.0834 0.430305 25.6032C0.410809 25.7174 0.424924 25.7973 0.461987 25.7816C0.499049 25.766 0.503213 25.8434 0.471328 25.9549C0.446044 26.0428 0.421623 26.1279 0.397355 26.213C0.365471 26.3243 0.372934 26.4057 0.413703 26.3948C0.454726 26.3839 0.454066 26.4635 0.434215 26.5778C0.382428 26.8761 0.416191 27.1922 0.200566 27.4374C0.124511 27.5239 0.0870418 27.5727 0.141722 27.5727C0.196403 27.5727 0.186249 27.6488 0.119332 27.7431C0.101105 27.7688 0.0830817 27.7943 0.0644487 27.8204C-0.00246763 27.9145 -0.0200852 27.9783 0.024898 27.9626C0.0698812 27.9469 0.110041 27.9399 0.11461 27.9468C0.117758 27.9514 0.120195 27.9558 0.120399 27.9603C0.121871 27.988 0.123292 28.0161 0.120195 28.0434C0.0626209 28.5463 0.222905 28.9363 0.695432 29.1528C1.03809 29.3099 1.28539 29.6631 1.73284 29.62C1.87307 29.6066 2.02843 29.7594 2.1778 29.834C2.18358 29.8369 2.19232 29.8342 2.20161 29.8304C2.21445 29.8254 2.21506 29.7981 2.20308 29.7693C2.19105 29.7405 2.27203 29.7363 2.38413 29.7603C2.4645 29.7775 2.54507 29.7947 2.62646 29.8121C2.73856 29.8361 2.81457 29.8239 2.79675 29.7851C2.77893 29.7464 2.85061 29.7504 2.95916 29.7868C3.8963 30.1002 4.85145 29.9701 5.79869 29.9881C5.91303 29.9902 5.99324 29.9763 5.97811 29.9541C5.96278 29.9316 6.04336 29.9136 6.15795 29.9138C6.48374 29.9145 6.81233 29.9157 7.14062 29.9121C7.29329 29.9104 7.44677 29.901 7.59797 29.8802C7.93438 29.8342 8.27038 29.7851 8.60471 29.7263C8.97138 29.6618 9.34175 29.8088 9.71974 29.585C9.94095 29.454 10.1421 29.3546 10.22 29.1818C10.2675 29.0764 10.3427 28.9542 10.4541 28.9275C10.6612 28.8777 10.857 28.8324 11.0484 28.7727C11.3166 28.6892 11.5485 28.5905 11.6052 28.2313C11.6454 27.9761 11.6253 27.7419 11.3971 27.6061C11.3747 27.5929 11.3624 27.5624 11.354 27.5305C11.3415 27.4828 11.2417 27.4354 11.1277 27.4257C11.1024 27.4236 11.0765 27.4213 11.05 27.419C10.9361 27.4093 10.8914 27.3209 10.9504 27.2214C10.9846 27.1639 11.0165 27.1101 11.0472 27.0583C11.1062 26.9589 11.1677 26.8858 11.1847 26.8948C11.2016 26.9039 11.2203 26.9801 11.2261 27.0652C11.2319 27.1503 11.2779 27.1353 11.3285 27.0312C11.3533 26.9802 11.3771 26.9312 11.4002 26.8836C11.4507 26.7796 11.5041 26.6996 11.5193 26.705C11.5344 26.7105 11.5534 26.7825 11.5616 26.8655C11.5696 26.9484 11.6107 26.9285 11.6534 26.8207C11.667 26.7861 11.6807 26.7517 11.6946 26.7164C11.737 26.6087 11.7776 26.5993 11.7853 26.695C11.793 26.7907 11.8214 26.7765 11.8686 26.6706C11.9628 26.4595 12.1103 26.3006 12.3419 26.2009C12.662 26.0631 12.97 25.8964 13.2901 25.758C13.3439 25.7347 13.4595 25.7683 13.4984 25.816C13.6548 26.0067 13.7878 26.2169 13.9384 26.413C14.0964 26.619 14.2605 26.8206 14.4295 27.0173C14.6447 27.2676 14.8677 27.511 15.0868 27.758C15.0992 27.772 15.1102 27.7871 15.1216 27.8034C15.1396 27.8294 15.1707 27.8239 15.1908 27.7916C15.2108 27.7592 15.2648 27.8188 15.3114 27.9249C15.3277 27.9621 15.3443 27.9999 15.3613 28.039C15.4076 28.145 15.454 28.1727 15.4646 28.1009C15.4752 28.029 15.5363 28.0482 15.6009 28.1437C15.7733 28.3986 15.9403 28.6456 16.1031 28.8862C16.1677 28.982 16.2201 28.9996 16.2201 28.9259C16.2201 28.8522 16.2721 28.8705 16.3361 28.9664C16.4318 29.1099 16.5228 29.2459 16.6199 29.3914C16.6842 29.4874 16.7262 29.4916 16.7144 29.4007C16.7024 29.3098 16.7073 29.2254 16.7251 29.2124C16.743 29.1992 16.8122 29.2645 16.8795 29.3581C16.9178 29.4112 16.9559 29.4643 16.994 29.5175C17.0613 29.6112 17.1384 29.6639 17.1612 29.6315C17.1848 29.5982 17.1871 29.5822 17.1881 29.5662C17.1887 29.5574 17.1811 29.5479 17.1819 29.5391C17.1821 29.5358 17.1864 29.533 17.1941 29.5278C17.2017 29.5225 17.283 29.5729 17.3758 29.6407C17.4391 29.6869 17.5034 29.7342 17.5696 29.7825C17.6624 29.8503 17.7333 29.8629 17.7279 29.8108C17.7225 29.7588 17.8039 29.7524 17.9087 29.7989C17.9992 29.839 18.0853 29.8745 18.1749 29.8888C18.4042 29.9257 18.6518 29.8812 18.8707 29.9448C19.3088 30.0719 19.6754 29.8766 19.9671 29.6412C20.1501 29.4936 20.3215 29.4537 20.5206 29.4354C20.6345 29.4249 20.7946 29.3567 20.8777 29.2769C20.9916 29.1672 21.1085 29.0547 21.2189 28.9487C21.3017 28.8689 21.3295 28.7192 21.2781 28.6154C21.1499 28.3563 21.0095 28.1307 20.735 28.0482C20.6254 28.0152 20.5736 27.9793 20.6262 27.9346C20.6788 27.8899 20.6287 27.8535 20.5144 27.8535C20.4825 27.8535 20.4516 27.8535 20.4216 27.8535C20.3072 27.8535 20.2144 27.8477 20.2142 27.8403C20.214 27.8329 20.259 27.8149 20.3149 27.7998C20.3708 27.7847 20.3321 27.7328 20.2283 27.6839C20.1972 27.6694 20.1668 27.6549 20.1363 27.6406C20.0325 27.5919 19.9888 27.5424 20.0387 27.5304C20.0886 27.5182 20.0474 27.4636 19.9467 27.4083C19.7568 27.3038 19.5662 27.1983 19.3734 27.0967C19.3327 27.0753 19.289 27.06 19.2374 27.0432C19.1606 27.0182 19.1472 26.9827 19.207 26.9648C19.2668 26.9472 19.2621 26.9071 19.1966 26.8754C19.1312 26.8437 19.1407 26.808 19.2182 26.7958C19.2956 26.7837 19.2726 26.7379 19.167 26.6936C19.0781 26.6564 18.9899 26.6195 18.9056 26.5842C18.7999 26.5399 18.7511 26.4538 18.8 26.395C18.8439 26.3421 18.876 26.3019 18.8669 26.278C18.8424 26.214 18.8072 26.1544 18.7677 26.0932C18.7047 25.9964 18.685 25.9202 18.725 25.9219C18.7649 25.9235 18.7827 25.8757 18.7651 25.815C18.7544 25.7783 18.7445 25.7415 18.7369 25.7043C18.6914 25.4782 18.6935 25.2292 18.5965 25.0292C18.4639 24.7556 18.4898 24.5438 18.6388 24.3539C18.71 24.2632 18.8006 24.2301 18.8202 24.2609C18.8401 24.2918 18.8914 24.247 18.9347 24.161C18.9782 24.0749 19.0241 24.0312 19.0371 24.0634C19.0501 24.0955 19.1206 24.0495 19.1943 23.9609C19.2557 23.8872 19.3182 23.812 19.3818 23.7356C19.4555 23.6469 19.5283 23.6106 19.5437 23.6545C19.5595 23.6984 19.6051 23.6459 19.6569 23.5423C19.916 23.0228 20.3539 22.6105 20.4552 22.0179C20.4556 22.0154 20.4606 22.0134 20.4662 22.0118C20.4731 22.0097 20.5035 22.0313 20.534 22.0603C20.5644 22.0892 20.6152 22.0225 20.6473 21.9112C20.8262 21.2875 20.9994 20.6836 21.1761 20.068C21.208 19.9566 21.2925 19.7931 21.3596 19.6992C21.6915 19.2371 21.7764 18.9239 21.7878 18.7394C21.7951 18.6237 21.6869 18.4742 21.626 18.3759C21.5061 18.1823 21.5318 17.9757 21.5162 17.7734C21.4951 17.5022 21.5247 17.2269 21.5471 16.9571C21.5566 16.8416 21.5742 16.7534 21.5985 16.7645C21.6225 16.7756 21.6217 16.6916 21.6237 16.5757C21.6322 16.0787 22.0658 15.9529 22.4347 15.7967C22.5404 15.7519 22.7046 15.6832 22.8053 15.6509C22.8689 15.6305 22.929 15.606 22.9756 15.5657C23.1072 15.4521 23.2035 15.2958 23.3116 15.155C23.4104 15.0263 23.5295 14.9311 23.6608 14.8326C23.8852 14.6646 24.0466 14.4124 24.2467 14.2083C24.4127 14.0391 24.5847 13.8706 24.7757 13.7327C25.0189 13.5574 25.0709 13.2243 24.8994 12.9585C24.7315 12.6966 24.5691 12.4247 24.4512 12.1372Z" fill="black"/>
</svg>
