<svg width="70" height="92" fill="none" xmlns="http://www.w3.org/2000/svg"><path d="M35 70.095c2.32 0 4.546-.923 6.187-2.566a8.768 8.768 0 0 0 2.563-6.196A8.754 8.754 0 0 0 35 52.571c-2.32 0-4.546.924-6.187 2.567a8.768 8.768 0 0 0 0 12.39A8.744 8.744 0 0 0 35 70.096zm26.25-39.428c2.32 0 4.546.923 6.187 2.566A8.768 8.768 0 0 1 70 39.429v43.81a8.768 8.768 0 0 1-2.563 6.195A8.744 8.744 0 0 1 61.25 92H8.75a8.744 8.744 0 0 1-6.187-2.566A8.768 8.768 0 0 1 0 83.238v-43.81a8.753 8.753 0 0 1 8.75-8.761h4.375v-8.762a21.92 21.92 0 0 1 6.407-15.49 21.86 21.86 0 0 1 23.84-4.748A21.873 21.873 0 0 1 55.21 13.522a21.93 21.93 0 0 1 1.665 8.383v8.762h4.375zM35 8.762c-3.481 0-6.82 1.385-9.28 3.85a13.152 13.152 0 0 0-3.845 9.293v8.762h26.25v-8.762c0-3.486-1.383-6.829-3.844-9.294A13.116 13.116 0 0 0 35 8.761z" fill="#4F4F4F"/></svg>