<svg width="33" height="30" viewBox="0 0 33 30" fill="none" xmlns="http://www.w3.org/2000/svg">
<path d="M32.866 12.3099C33.1038 11.2608 32.9769 10.2691 32.8543 9.30992C32.7496 8.49088 32.6508 7.7174 32.8002 6.99917C33.1545 5.2966 32.056 3.4278 31.0594 1.9899C29.9476 0.385879 28.7444 0.158337 27.166 0.0119568C27.0807 0.00407619 26.9935 5.52868e-09 26.907 5.52868e-09C25.8478 5.52868e-09 24.9631 0.586427 24.4877 0.901471C24.3644 0.983176 24.2369 1.06769 24.1995 1.07512C24.1404 1.0868 24.002 1.08861 23.8268 1.09097C23.3564 1.09713 22.5691 1.10754 21.6317 1.30619C20.7183 1.49986 19.9864 1.9601 20 2.33221C20.0051 2.47316 20.1093 2.65477 20.5767 2.71936C21.5558 2.85478 22.4215 3.1172 23.1171 3.32798C23.2546 3.36965 23.3836 3.40878 23.5033 3.44365C24.2559 3.6634 24.9512 3.96368 25.1892 5.20873C25.3549 6.07451 23.8501 7.06792 22.5227 7.94449C21.972 8.30799 21.4521 8.65139 21.0332 8.98808C19.5724 10.1623 16.7871 12.5421 15.8949 13.3783C15.0491 14.171 7.93658 18.9956 6.02469 19.9182C4.07096 20.8611 2.16686 22.3391 1.68974 23.2831C1.58279 23.4947 1.5599 23.6287 1.61539 23.7176C1.63965 23.7564 1.68974 23.8026 1.79073 23.8026C1.91095 23.8026 2.07558 23.734 2.21759 23.6675C2.21777 23.6845 2.22097 23.702 2.22848 23.7199C2.27088 23.8212 2.40748 23.8342 2.52175 23.8342C2.83407 23.8342 3.48507 23.7073 4.27899 23.4926C3.99387 23.7011 3.42811 24.0601 2.91336 24.3867C0.878508 25.6784 -0.0251071 26.3057 0.000529945 26.6091C0.0146303 26.7771 0.126884 26.9774 0.581484 26.9774C0.860562 26.9774 1.20062 26.9064 1.47393 26.8495C1.61576 26.8199 1.73863 26.7943 1.82351 26.7845C1.79256 26.8487 1.71318 26.9592 1.65687 27.0376C1.47448 27.2914 1.28586 27.5539 1.42018 27.7201C1.46047 27.77 1.52905 27.7942 1.62958 27.7942C1.93036 27.7942 2.57275 27.5735 3.19399 27.36C3.63751 27.2075 4.05641 27.0636 4.30957 27.0135C4.69614 26.9371 6.57003 25.977 8.38211 25.0485C9.7341 24.3558 11.2665 23.5708 11.4314 23.5528C11.7525 23.5528 14.3467 23.3656 15.983 22.903C16.3476 22.7999 16.7372 22.7477 17.1409 22.7477C18.1224 22.7477 19.0697 23.0496 19.8814 23.3494C19.8764 23.5449 19.8715 23.7844 19.8663 24.0784C19.8525 24.885 19.8464 25.7205 19.8484 25.9412C19.851 26.2495 20.4396 26.7937 21.2707 27.5287C21.6126 27.831 22.0322 28.2022 22.1093 28.3357C21.97 28.4214 21.7565 28.424 21.4917 28.4271C21.0292 28.4327 20.3957 28.4402 19.7387 28.9358C19.3561 29.2245 19.1031 29.6373 19.0457 29.8383C19.0403 29.8569 19.0242 29.9133 19.0596 29.9596C19.0793 29.9852 19.1095 30 19.1425 30C19.1701 30 19.1978 29.9899 19.2277 29.969L19.2952 29.9213C19.5095 29.7694 20.0114 29.4136 20.2809 29.3121C20.6452 29.175 20.9129 29.1191 21.2049 29.1191C21.5884 29.1191 22.0416 29.2166 22.7437 29.3965C23.1737 29.5067 23.5408 29.5603 23.8659 29.5603C24.2888 29.5603 24.5959 29.4717 24.9209 29.378C25.2992 29.2689 25.6902 29.1561 26.3294 29.1561C26.4482 29.1561 26.5734 29.1601 26.7018 29.1681C27.4022 29.2115 28.0296 29.5723 28.3312 29.7456C28.4611 29.8203 28.5003 29.8428 28.5428 29.8428L28.6075 29.8403L28.6317 29.7869C28.6635 29.717 28.6236 29.6726 28.4319 29.459C28.11 29.1004 27.8088 28.881 27.5176 28.7392C27.6956 28.705 27.86 28.658 28.0289 28.6093C28.4071 28.5002 28.7981 28.3875 29.4373 28.3875C29.556 28.3875 29.6813 28.3914 29.8097 28.3994C30.51 28.4428 31.1376 28.8036 31.4391 28.9769C31.569 29.0516 31.6083 29.0741 31.6508 29.0741L31.7154 29.0715L31.7397 29.0181C31.7715 28.9483 31.7315 28.9039 31.5399 28.6903C30.8583 27.9309 30.2682 27.7911 29.6737 27.7052C29.4402 27.6716 29.2637 27.594 29.2445 27.5166C29.2286 27.4533 29.3153 27.3461 29.4765 27.23C29.7623 27.024 30.0498 26.9196 30.331 26.9196C30.8292 26.9196 31.1391 27.2431 31.1728 27.3662C31.188 27.422 31.2326 27.4417 31.2663 27.4417C31.3006 27.4417 31.346 27.421 31.3606 27.3631C31.3882 27.2547 31.3551 26.78 30.9498 26.5652C30.7473 26.4579 30.434 26.3988 30.0675 26.3988C29.2017 26.3988 28.2597 26.7001 27.4836 27.2151C27.3289 27.1841 27.1519 27.1674 26.9596 27.1674C26.9063 27.1674 26.8525 27.169 26.7987 27.1713C26.1357 26.647 24.969 25.4267 24.9018 25.0117C24.8576 24.738 24.8318 23.8734 24.8318 23.0372C24.8318 23.0341 24.8318 23.0311 24.8318 23.0279C25.3811 22.7576 25.9388 22.4391 26.5856 22.0627C29.8232 20.1789 32.4271 14.2467 32.866 12.3099ZM22.9649 23.9382C22.9577 24.5114 22.9548 25.0093 22.9562 25.1726C22.959 25.4809 23.5474 26.025 24.3785 26.76C24.7017 27.0458 25.0938 27.3927 25.201 27.5427C25.1283 27.5733 25.0562 27.6055 24.9848 27.6395C24.8742 27.6547 24.745 27.6567 24.5997 27.6585C24.3002 27.6621 23.929 27.6673 23.5262 27.8045C22.853 27.2292 21.8675 26.163 21.8055 25.7806C21.772 25.5733 21.7597 25.0263 21.7528 24.4096C22.0201 24.319 22.4183 24.1745 22.9649 23.9382Z" fill="black"/>
</svg>
