<svg width="23" height="21" viewBox="0 0 23 21" fill="none" xmlns="http://www.w3.org/2000/svg">
<path d="M2.55556 7.875L4.47222 1.96875H18.5278L20.4444 7.875H2.55556ZM18.5278 14.4375C18.0194 14.4375 17.5319 14.2301 17.1725 13.8609C16.813 13.4917 16.6111 12.9909 16.6111 12.4688C16.6111 11.9466 16.813 11.4458 17.1725 11.0766C17.5319 10.7074 18.0194 10.5 18.5278 10.5C19.0361 10.5 19.5236 10.7074 19.8831 11.0766C20.2425 11.4458 20.4444 11.9466 20.4444 12.4688C20.4444 12.9909 20.2425 13.4917 19.8831 13.8609C19.5236 14.2301 19.0361 14.4375 18.5278 14.4375ZM4.47222 14.4375C3.96389 14.4375 3.47638 14.2301 3.11693 13.8609C2.75749 13.4917 2.55556 12.9909 2.55556 12.4688C2.55556 11.9466 2.75749 11.4458 3.11693 11.0766C3.47638 10.7074 3.96389 10.5 4.47222 10.5C4.98055 10.5 5.46807 10.7074 5.82751 11.0766C6.18695 11.4458 6.38889 11.9466 6.38889 12.4688C6.38889 12.9909 6.18695 13.4917 5.82751 13.8609C5.46807 14.2301 4.98055 14.4375 4.47222 14.4375ZM20.3422 1.3125C20.0867 0.55125 19.3711 0 18.5278 0H4.47222C3.62889 0 2.91333 0.55125 2.65778 1.3125L0 9.1875V19.6875C0 20.0356 0.134623 20.3694 0.374252 20.6156C0.613882 20.8617 0.93889 21 1.27778 21H2.55556C2.89444 21 3.21945 20.8617 3.45908 20.6156C3.69871 20.3694 3.83333 20.0356 3.83333 19.6875V18.375H19.1667V19.6875C19.1667 20.0356 19.3013 20.3694 19.5409 20.6156C19.7805 20.8617 20.1056 21 20.4444 21H21.7222C22.0611 21 22.3861 20.8617 22.6257 20.6156C22.8654 20.3694 23 20.0356 23 19.6875V9.1875L20.3422 1.3125Z" fill="#828282"/>
</svg>
