<svg width="241" height="86" viewBox="0 0 241 86" fill="none" xmlns="http://www.w3.org/2000/svg">
<path d="M35.9639 5.67226L3.11893 1.39325e-07C1.39792 1.39325e-07 2.45355e-07 1.40969 2.45355e-07 3.1481V56.9047C2.45355e-07 58.6436 1.39641 60.0518 3.11893 60.0518L43.76 71.3948C45.482 71.3948 46.8795 69.9861 46.8795 68.2492V16.7779L35.9639 5.67226Z" transform="translate(15.2402 1.68555)" fill="white"/>
<path d="M45.4303 74.7671H45.2032L4.53896 63.416C2.01396 63.2851 -4.14036e-07 61.1703 -4.14036e-07 58.5898V4.83324C-4.14036e-07 2.16806 2.14863 1.62546e-07 4.7892 1.62546e-07L5.07059 0.0238412L38.4437 5.7869L50.22 17.7691V69.9338C50.219 72.599 48.0714 74.7671 45.4303 74.7671ZM4.67312 3.37637C3.92894 3.43623 3.34003 4.06625 3.34003 4.83375V58.5903C3.34003 59.3959 3.98974 60.0518 4.7892 60.0518H5.01531L45.6142 71.3831C46.3267 71.2923 46.8795 70.677 46.8795 69.9354V19.1574L36.8262 8.9279L4.67312 3.37637Z" transform="translate(13.5703)" fill="#424547"/>
<path d="M11.0009 11.1056H3.11793C1.39691 11.1056 -7.36064e-07 9.69539 -7.36064e-07 7.95699V-2.63169e-07" transform="translate(51.2051 7.35791)" fill="white"/>
<path d="M12.6707 12.7912H4.78769C2.14813 12.7912 2.45355e-07 10.6227 2.45355e-07 7.95699L0.000502456 -2.63169e-07H3.34003L3.33952 7.95699C3.33952 8.76354 3.98974 9.41995 4.78769 9.41995H12.6707V12.7912Z" transform="translate(49.5352 7.35791)" fill="#424547"/>
<path d="M35.964 5.67276L3.11893 -1.85767e-07C1.39591 -1.85767e-07 1.07343e-07 1.40969 1.07343e-07 3.1481V56.9052C1.07343e-07 58.6431 1.3954 60.0513 3.11893 60.0513L43.7595 71.3963C45.482 71.3963 46.8795 69.9881 46.8795 68.2487V16.7794L35.964 5.67276Z" transform="translate(8.67773 7.59375)" fill="white"/>
<path d="M45.4288 74.7671H45.2027L4.53795 63.416C2.01396 63.2831 -4.21703e-07 61.1688 -4.21703e-07 58.5898V4.83324C-4.21703e-07 2.16806 2.14763 -4.41196e-07 4.78819 -4.41196e-07L5.07009 0.0243485L38.4427 5.7869L50.2195 17.7696V69.9338C50.2185 72.5985 48.0688 74.7671 45.4288 74.7671ZM4.67212 3.37535C3.92693 3.4347 3.33902 4.06625 3.33902 4.83324V58.5903C3.33902 59.3959 3.98874 60.0528 4.78819 60.0528H5.01431L45.6127 71.3831C46.3257 71.2928 46.8795 70.6775 46.8795 69.9349V19.1579L36.8247 8.9279L4.67212 3.37535Z" transform="translate(7.00977 5.90869)" fill="#424547"/>
<path d="M11.0009 11.1066H3.11793C1.39791 11.1066 1.04276e-06 9.69539 1.04276e-06 7.95699V-8.66911e-07" transform="translate(44.6426 13.2666)" fill="white"/>
<path d="M12.6702 12.7912H4.78719C2.14712 12.7912 1.74815e-06 10.6232 1.74815e-06 7.95699V-8.66911e-07H3.33952V7.95749C3.33952 8.76456 3.98823 9.42045 4.78719 9.42045H12.6702V12.7912Z" transform="translate(42.9746 13.2666)" fill="#424547"/>
<path d="M35.9665 5.67277L3.11843 6.50183e-07C1.39792 6.50183e-07 -7.28397e-08 1.40969 -7.28397e-08 3.1481V56.9047C-7.28397e-08 58.6426 1.45872 59.5689 3.11843 60.0523L43.761 71.3953C45.4836 71.3953 46.88 69.9866 46.88 68.2492V16.7784L35.9665 5.67277Z" transform="translate(1.66992 12.9185)" fill="white"/>
<path d="M45.4303 74.7666H45.2032L4.34249 63.3617C0.562785 62.2604 1.53347e-07 59.9006 1.53347e-07 58.5898V4.83324C1.53347e-07 2.16755 2.14763 -5.72781e-07 4.78769 -5.72781e-07L5.06958 0.0238414L38.4437 5.7869L50.2195 17.7696V69.9343C50.219 72.598 48.0714 74.7666 45.4303 74.7666ZM4.67262 3.37586C3.92844 3.43572 3.34053 4.06625 3.34053 4.83324V58.5898C3.34053 59.2346 3.98271 59.7479 5.25148 60.1177L45.6152 71.3846C46.3277 71.2923 46.8795 70.6765 46.8795 69.9354V19.158L36.8262 8.92739L4.67262 3.37586Z" transform="translate(0 11.2334)" fill="#424547"/>
<path d="M10.9994 11.1056H3.11692C1.3944 11.1056 1.1961e-06 9.69641 1.1961e-06 7.958V-3.09611e-08" transform="translate(37.6367 18.5913)" fill="white"/>
<path d="M12.6697 12.7917H4.78719C2.14712 12.7917 -1.38012e-06 10.6227 -1.38012e-06 7.958V-3.09611e-08H3.33952V7.958C3.33952 8.76405 3.98823 9.42045 4.78719 9.42045H12.6702L12.6697 12.7917Z" transform="translate(35.9668 18.5913)" fill="#424547"/>
<path d="M3.36075 0.0353937C4.80188 0.161196 7.4329 1.46335 8.30421 7.34815C9.17301 13.235 5.86765 13.1229 5.86765 13.1229C5.86765 13.1229 2.22463 13.5221 0.502105 6.6395C-1.21841 -0.243601 1.91912 -0.091423 3.36075 0.0353937Z" transform="translate(16.5449 33.7563)" fill="#288B5F"/>
<path d="M6.46187 0.752395C7.90803 1.73751 10.2908 4.599 7.6804 9.30085C5.07099 14.0007 2.34902 11.4263 2.34902 11.4263C2.34902 11.4263 -1.56133 8.37763 0.708405 3.67273C2.98065 -1.03268 5.01873 -0.231703 6.46187 0.752395Z" transform="translate(26.2578 37.2275)" fill="#288B5F"/>
<path d="M6.52142 0.750871C6.52142 0.750871 9.6705 4.16123 7.144 8.53945C4.61851 12.9197 1.80659 9.42919 1.80659 9.42919C1.80659 9.42919 -1.3455 5.07684 0.677508 2.18948C2.70353 -0.696362 5.84105 -0.22156 6.52142 0.750871Z" transform="translate(33.1328 50.043)" fill="#288B5F"/>
<path d="M1.66602 0.0824136C3.3604 -0.235135 5.65074 0.118431 7.53657 5.67452C9.4219 11.2286 6.6748 11.953 6.6748 11.953C6.6748 11.953 2.55944 12.0174 0.931887 7.53417C-0.694158 3.05043 -0.0278624 0.401992 1.66602 0.0824136Z" transform="translate(9.25781 40.5645)" fill="#288B5F"/>
<path d="M10.4214 0.121784C13.7635 0.959281 19.4712 9.34947 19.7411 13.6191C20.0129 17.8873 17.8909 17.4957 15.6001 16.6247C13.3072 15.7578 12.2857 14.6291 10.8445 14.3313C9.40239 14.03 6.01262 14.135 4.65541 13.7825C3.29819 13.4299 -0.525728 11.2989 0.060673 9.31194C0.646572 7.32852 3.00675 3.50221 4.35793 2.40651C5.71013 1.31031 8.01553 -0.483893 10.4214 0.121784Z" transform="translate(14.6016 50.4907)" fill="#288B5F"/>
<path d="M100.821 35.3281C100.821 39.2067 97.7471 42.3471 93.9534 42.3471H6.8725C3.07923 42.3471 -2.02418e-06 39.2067 -2.02418e-06 35.3281V7.01804C-2.02418e-06 3.14201 3.07923 -7.12106e-07 6.8725 -7.12106e-07H93.9534C97.7471 -7.12106e-07 100.821 3.14201 100.821 7.01804V35.3281Z" transform="translate(73.3613 25.0249)" fill="#288B5F"/>
<path d="M5.55599 19.5359V30.1489H-3.18961e-06V-5.26339e-07H9.70653C11.7034 -5.26339e-07 13.431 0.236895 14.8907 0.708653C16.3494 1.18193 17.5549 1.84189 18.5046 2.68953C19.4548 3.53768 20.1602 4.55221 20.6215 5.73364C21.0828 6.91506 21.3135 8.20758 21.3135 9.61169C21.3135 11.0711 21.0728 12.4093 20.5909 13.6252C20.1085 14.8416 19.3864 15.8881 18.4226 16.7631C17.4589 17.6392 16.2509 18.3205 14.7982 18.8069C13.345 19.2934 11.6481 19.5364 9.70653 19.5364H5.55599V19.5359ZM5.55599 15.1576H9.70702C10.7261 15.1576 11.614 15.0288 12.3717 14.7721C13.129 14.5144 13.7586 14.1462 14.2616 13.6663C14.7641 13.1869 15.1394 12.603 15.3871 11.9152C15.6349 11.2273 15.7585 10.4593 15.7585 9.61118C15.7585 8.80514 15.6349 8.07569 15.3871 7.42233C15.1394 6.76897 14.7676 6.213 14.2716 5.75444C13.7757 5.29587 13.1496 4.94484 12.3923 4.70135C11.6346 4.45837 10.7401 4.33663 9.70702 4.33663H5.55599V15.1576Z" transform="translate(180.656 30.689)" fill="#424547"/>
<path d="M10.1819 1.17652e-06C11.5175 1.17652e-06 12.7496 0.215587 13.8787 0.646256C15.0077 1.07693 15.9786 1.70644 16.7911 2.53329C17.6031 3.36013 18.2398 4.37518 18.7015 5.57689C19.1623 6.77962 19.3935 8.15178 19.3935 9.69438C19.3935 10.473 19.3106 10.9981 19.1457 11.2689C18.9804 11.5403 18.6633 11.6753 18.1955 11.6753H5.08014C5.16305 12.774 5.356 13.7221 5.6585 14.5215C5.961 15.321 6.36048 15.9809 6.85643 16.5019C7.35238 17.0229 7.94079 17.4124 8.62266 17.6701C9.30403 17.9268 10.0578 18.0557 10.8838 18.0557C11.7104 18.0557 12.423 17.9588 13.0214 17.7635C13.6204 17.5692 14.1435 17.3541 14.5912 17.1177C15.0389 16.8818 15.4309 16.6657 15.7685 16.472C16.1057 16.2767 16.4328 16.1798 16.7494 16.1798C17.1765 16.1798 17.493 16.3391 17.6996 16.6592L19.1663 18.5355C18.6015 19.2021 17.9684 19.7621 17.2664 20.2141C16.5645 20.6661 15.8308 21.0277 15.0665 21.2981C14.3023 21.5695 13.5244 21.7607 12.7325 21.8718C11.9406 21.9829 11.1733 22.0382 10.4296 22.0382C8.95632 22.0382 7.58653 21.7917 6.31976 21.2981C5.05299 20.8055 3.95155 20.0756 3.01542 19.1098C2.07929 18.1439 1.34213 16.9478 0.805479 15.5234C0.268824 14.099 -4.66174e-06 12.4478 -4.66174e-06 10.5714C-4.66174e-06 9.11203 0.234156 7.73988 0.70197 6.45396C1.16978 5.16804 1.84161 4.04951 2.71593 3.09686C3.58976 2.14523 4.65705 1.39092 5.91678 0.83496C7.17652 0.278996 8.59854 1.17652e-06 10.1819 1.17652e-06ZM10.2854 3.69088C8.79802 3.69088 7.63478 4.11495 6.79512 4.96208C5.95496 5.81023 5.41831 7.01296 5.18415 8.56926H14.8083C14.8083 7.9017 14.7153 7.27319 14.5294 6.68172C14.3435 6.09126 14.0646 5.57385 13.6927 5.12898C13.3214 4.6841 12.8491 4.33358 12.2782 4.07589C11.7074 3.8182 11.0426 3.69088 10.2854 3.69088Z" transform="translate(203.293 39.1123)" fill="#424547"/>
<path d="M8.87994 28.271C7.03482 28.271 5.62031 27.747 4.63594 26.6975C3.65107 25.6484 3.15964 24.1987 3.15964 22.3502V10.4035H0.990904C0.715542 10.4035 0.481381 10.3132 0.288929 10.1321C0.0959745 9.95207 -6.5019e-06 9.68068 -6.5019e-06 9.319V7.27624L3.40786 6.71317L4.48167 0.875035C4.55051 0.59756 4.68116 0.38197 4.87412 0.229283C5.06657 0.0760883 5.3143 3.40572e-07 5.6173 3.40572e-07H8.26087V6.73397H13.9199V10.404H8.26087V21.9961C8.26087 22.6637 8.42267 23.1851 8.74627 23.5595C9.06987 23.9349 9.51357 24.1231 10.0784 24.1231C10.3949 24.1231 10.6597 24.0845 10.8733 24.0079C11.0869 23.9313 11.2728 23.8512 11.4311 23.768C11.5888 23.6848 11.7305 23.6046 11.8547 23.528C11.9783 23.452 12.1024 23.4129 12.226 23.4129C12.3777 23.4129 12.5014 23.4515 12.5978 23.528C12.6938 23.6041 12.7968 23.7193 12.9074 23.872L14.4359 26.3738C13.6927 26.9998 12.838 27.4726 11.8748 27.7916C10.9105 28.1117 9.91255 28.271 8.87994 28.271Z" transform="translate(224.441 32.8994)" fill="#424547"/>
<path d="M5.75347 0.000508908H13.7018L17.7388 11.9517C18.8402 15.2033 19.7115 18.0744 20.3532 20.5661H20.625C21.0295 18.1307 21.5592 15.4351 22.2149 12.4798L23.6792 5.70168C23.8601 4.85708 23.951 4.03328 23.951 3.23129C23.951 2.63982 23.8148 2.20661 23.543 1.93218C23.2711 1.65775 22.8285 1.47817 22.2149 1.39346L22.5079 1.91959e-06H30.205L29.912 1.39346C29.3261 1.56238 28.8764 1.79471 28.5628 2.09045C28.2488 2.38618 27.9804 2.80468 27.7573 3.34695C27.5342 3.88871 27.3106 4.67396 27.088 5.70168L22.0471 28.8224H17.278L12.2581 14.063C11.8677 12.9089 11.519 11.829 11.212 10.822C10.9055 9.81612 10.5356 8.53832 10.1035 6.98963L9.78944 6.96833C9.67788 7.91134 9.46533 9.21045 9.15128 10.8641C8.83773 12.5183 8.46438 14.3095 8.03225 16.2376L6.52629 23.1212C6.44237 23.488 6.3866 23.7761 6.35897 23.9871C6.33083 24.1982 6.30671 24.4269 6.2856 24.673C6.2645 24.9195 6.25395 25.2259 6.25395 25.5926C6.25395 26.1831 6.39012 26.6163 6.66196 26.8907C6.93381 27.1652 7.3765 27.3447 7.99004 27.4299L7.69708 28.8229H1.84016e-06L0.292948 27.4299C0.878847 27.2605 1.32857 27.0287 1.64212 26.7325C1.95618 26.4372 2.22451 26.0182 2.44761 25.476C2.67072 24.9352 2.89382 24.1495 3.11693 23.1217L6.92376 5.70219C7.10465 4.87128 7.19611 4.04799 7.19611 3.2318C7.19611 2.64032 7.05994 2.20712 6.78809 1.93269C6.51625 1.65826 6.07355 1.47868 5.46002 1.39397L5.75347 0.000508908Z" transform="translate(79.5723 31.2695)" fill="white"/>
<path d="M7.781 21.6217C6.24691 21.6217 4.89823 21.3443 3.73347 20.7873C2.56921 20.2313 1.65569 19.3872 0.993412 18.254C0.331135 17.1208 2.14685e-06 15.7385 2.14685e-06 14.1046C2.14685e-06 13.4852 0.0417085 12.7958 0.125624 12.0359C0.237176 11.0787 0.432141 10.1002 0.711523 9.10037C1.03211 7.94633 1.43661 6.91861 1.92453 6.01821C2.45465 5.0047 3.06768 4.12763 3.76513 3.38905C4.46258 2.64996 5.21932 2.03769 6.03486 1.55224C6.85039 1.06628 7.73979 0.696983 8.70206 0.44335C9.84471 0.147613 11.0441 -1.91959e-06 12.2994 -1.91959e-06C14.0279 -1.91959e-06 15.4786 0.320593 16.6499 0.960764C17.8212 1.60195 18.6895 2.4922 19.2538 3.63203C19.8186 4.77237 20.1015 6.09582 20.1015 7.6019C20.1015 9.46052 19.7944 11.3252 19.1809 13.1976C18.5669 15.0699 17.7202 16.6394 16.6393 17.9055C15.559 19.1727 14.2797 20.1091 12.8013 20.7142C11.323 21.3194 9.64975 21.6217 7.781 21.6217ZM5.62684 15.4772C5.62684 16.8007 5.8394 17.7899 6.265 18.4447C6.69011 19.0986 7.36344 19.4268 8.28349 19.4268C8.79904 19.4268 9.29097 19.3177 9.75828 19.0991C10.2256 18.881 10.6859 18.5086 11.1386 17.9806C11.5914 17.4525 11.9999 16.7839 12.3627 15.9743C12.725 15.1647 13.0702 14.1664 13.3983 12.9764C13.7254 11.7863 13.9802 10.6222 14.1616 9.48183C14.343 8.34149 14.4339 7.27827 14.4339 6.29366C14.4339 4.88599 14.2209 3.85117 13.7958 3.18919C13.3697 2.52771 12.7114 2.19697 11.819 2.19697C10.6477 2.19697 9.63266 2.77069 8.77542 3.91813C7.91767 5.06506 7.17852 6.83846 6.55845 9.23936C5.93688 11.6382 5.62684 13.7185 5.62684 15.4772Z" transform="translate(109.4 38.8081)" fill="white"/>
<path d="M12.9893 22.3821C11.9989 23.4672 11.114 24.2971 10.3331 24.8738C9.55177 25.4516 8.73573 25.8777 7.88603 26.1521C7.03532 26.4266 6.05245 26.5635 4.93693 26.5635C3.80734 26.5635 2.8692 26.3556 2.12351 25.9411C1.37731 25.5262 0.836643 24.9692 0.501988 24.2727C0.167332 23.5762 7.36064e-06 22.7915 7.36064e-06 21.9185C7.36064e-06 21.2565 0.0492471 20.6265 0.146729 20.0279C0.243709 19.4293 0.446212 18.4478 0.753231 17.0822L2.90738 7.91844H0.0839186L0.376872 6.52497C1.24115 6.46867 1.91699 6.3241 2.4054 6.09177C2.89332 5.85944 3.30837 5.51805 3.65006 5.06759C3.99175 4.61714 4.31585 3.99777 4.62287 3.20948C4.92989 2.42119 5.27159 1.35136 5.64795 -5.573e-07H10.6678L9.45427 5.27862H14.5369L13.9721 7.91793H8.84777L6.52629 17.5672C6.4288 17.9902 6.33786 18.4052 6.25445 18.8135C6.17053 19.2219 6.10068 19.612 6.04541 19.9858C5.98963 20.3581 5.95094 20.6686 5.93034 20.9141C5.90973 21.1606 5.89869 21.3828 5.89869 21.5801C5.89869 22.2421 6.01677 22.7235 6.25445 23.0259C6.49162 23.3292 6.83984 23.4804 7.30012 23.4804C7.92773 23.4804 8.57242 23.2556 9.2352 22.8047C9.89698 22.3537 10.612 21.6572 11.3793 20.7142L12.9893 22.3821Z" transform="translate(133.266 33.8667)" fill="white"/>
<path d="M17.4448 16.892C16.0358 18.497 14.5198 19.687 12.8953 20.4606C11.2708 21.2352 9.51055 21.6217 7.61417 21.6217C5.9826 21.6217 4.59473 21.3336 3.45158 20.7558C2.30842 20.1791 1.44716 19.3243 0.868299 18.1906C0.289937 17.0584 4.41638e-06 15.703 4.41638e-06 14.1254C4.41638e-06 13.3944 0.0974753 12.458 0.292942 11.3176C0.557753 9.76895 0.962255 8.3902 1.50595 7.17935C2.18882 5.68748 3.08174 4.40612 4.18319 3.33629C5.28464 2.26647 6.57855 1.44317 8.0634 0.865396C9.54825 0.288634 11.1763 -1.91959e-06 12.9476 -1.91959e-06C15.0389 -1.91959e-06 16.6288 0.383494 17.7162 1.15099C18.8035 1.91848 19.3477 3.09027 19.3477 4.66686C19.3477 5.73668 19.1347 6.6802 18.7096 7.49537C18.284 8.31258 17.5765 9.05167 16.5861 9.71264C15.5957 10.3746 14.1983 10.9093 12.3923 11.3176C10.5864 11.726 8.4076 11.9588 5.85598 12.0141C5.67508 12.8455 5.58412 13.7033 5.58412 14.59C5.58412 15.111 5.63287 15.6076 5.73035 16.0793C5.82784 16.5511 6.00269 16.9701 6.25343 17.3358C6.50468 17.7026 6.83934 17.9938 7.25741 18.2119C7.67548 18.431 8.21213 18.5396 8.86787 18.5396C10.0944 18.5396 11.2029 18.29 12.1933 17.7893C13.1837 17.2902 14.348 16.3994 15.6866 15.1181L17.4448 16.892ZM6.35947 9.79735C8.92467 9.72786 10.8879 9.23175 12.2476 8.30903C13.6068 7.38783 14.2872 6.08162 14.2872 4.39242C14.2872 3.67413 14.1229 3.12882 13.7953 2.75548C13.4676 2.38314 13.0109 2.19596 12.425 2.19596C11.1281 2.19596 9.96029 2.84323 8.92165 4.13879C7.88251 5.43384 7.02879 7.32037 6.35947 9.79735Z" transform="translate(147.82 38.8081)" fill="white"/>
</svg>
