<svg width="70" height="92" viewBox="0 0 70 92" fill="none" xmlns="http://www.w3.org/2000/svg">
<path d="M35 70.0952C37.3206 70.0952 39.5462 69.1721 41.1872 67.5289C42.8281 65.8858 43.75 63.6571 43.75 61.3333C43.75 56.4705 39.8125 52.5714 35 52.5714C32.6794 52.5714 30.4538 53.4946 28.8128 55.1377C27.1719 56.7809 26.25 59.0095 26.25 61.3333C26.25 63.6571 27.1719 65.8858 28.8128 67.5289C30.4538 69.1721 32.6794 70.0952 35 70.0952ZM61.25 30.6667C63.5706 30.6667 65.7962 31.5898 67.4372 33.233C69.0781 34.8761 70 37.1048 70 39.4286V83.2381C70 85.5619 69.0781 87.7905 67.4372 89.4337C65.7962 91.0769 63.5706 92 61.25 92H8.75C6.42936 92 4.20376 91.0769 2.56282 89.4337C0.921872 87.7905 0 85.5619 0 83.2381V39.4286C0 34.5657 3.9375 30.6667 8.75 30.6667H13.125V21.9048C13.125 16.0953 15.4297 10.5237 19.532 6.41576C23.6344 2.30782 29.1984 0 35 0C37.8727 0 40.7172 0.566584 43.3712 1.6674C46.0252 2.76822 48.4367 4.38171 50.468 6.41576C52.4992 8.4498 54.1105 10.8646 55.2099 13.5222C56.3092 16.1798 56.875 19.0282 56.875 21.9048V30.6667H61.25ZM35 8.7619C31.519 8.7619 28.1806 10.1466 25.7192 12.6114C23.2578 15.0761 21.875 18.4191 21.875 21.9048V30.6667H48.125V21.9048C48.125 18.4191 46.7422 15.0761 44.2808 12.6114C41.8194 10.1466 38.481 8.7619 35 8.7619Z" fill="#4F4F4F"/>
</svg>
