<svg width="18" height="18" viewBox="0 0 18 18" fill="none" xmlns="http://www.w3.org/2000/svg">
<path d="M12 6H2V2H12V6ZM9 16C8.20435 16 7.44129 15.6839 6.87868 15.1213C6.31607 14.5587 6 13.7956 6 13C6 12.2044 6.31607 11.4413 6.87868 10.8787C7.44129 10.3161 8.20435 10 9 10C9.79565 10 10.5587 10.3161 11.1213 10.8787C11.6839 11.4413 12 12.2044 12 13C12 13.7956 11.6839 14.5587 11.1213 15.1213C10.5587 15.6839 9.79565 16 9 16ZM14 0H2C0.89 0 0 0.9 0 2V16C0 16.5304 0.210714 17.0391 0.585786 17.4142C0.960859 17.7893 1.46957 18 2 18H16C16.5304 18 17.0391 17.7893 17.4142 17.4142C17.7893 17.0391 18 16.5304 18 16V4L14 0Z" fill="#238644"/>
</svg>
