<svg class="icon" width="33" height="21" viewBox="0 0 33 21" fill="none" xmlns="http://www.w3.org/2000/svg">
<path class="usersvg" d="M22.5 12C22.065 12 21.57 12 21.045 12.075C22.785 13.335 24 15 24 17.25V21H33V17.25C33 13.755 25.995 12 22.5 12ZM10.5 12C7.005 12 0 13.755 0 17.25V21H21V17.25C21 13.755 13.995 12 10.5 12ZM10.5 9C11.6935 9 12.8381 8.5259 13.682 7.68198C14.5259 6.83807 15 5.69347 15 4.5C15 3.30653 14.5259 2.16193 13.682 1.31802C12.8381 0.474106 11.6935 0 10.5 0C9.30653 0 8.16193 0.474106 7.31802 1.31802C6.47411 2.16193 6 3.30653 6 4.5C6 5.69347 6.47411 6.83807 7.31802 7.68198C8.16193 8.5259 9.30653 9 10.5 9ZM22.5 9C23.6935 9 24.8381 8.5259 25.682 7.68198C26.5259 6.83807 27 5.69347 27 4.5C27 3.30653 26.5259 2.16193 25.682 1.31802C24.8381 0.474106 23.6935 0 22.5 0C21.3065 0 20.1619 0.474106 19.318 1.31802C18.4741 2.16193 18 3.30653 18 4.5C18 5.69347 18.4741 6.83807 19.318 7.68198C20.1619 8.5259 21.3065 9 22.5 9Z" fill="black"/>
</svg>
